<svg xmlns="http://www.w3.org/2000/svg" version="1.0" viewBox="0 0 551 550">
  <path d="M255 4.6A269.8 269.8 0 0 0 81.5 86.1 267 267 0 0 0 6.8 236.5a342.2 342.2 0 0 0-.5 75A268.3 268.3 0 0 0 81 464.4c43 44.1 93.9 70.2 155.5 79.8 20.2 3.1 57.8 3.1 78 0a267.2 267.2 0 0 0 155-79.3 267.4 267.4 0 0 0 74.7-150c3.2-20.8 3.2-58 0-78.8a269.3 269.3 0 0 0-79.8-155.2 265.1 265.1 0 0 0-122-68.4 242 242 0 0 0-61.9-8c-11.5-.1-23-.1-25.5.1zm58.8 17.3a247 247 0 0 1 74.7 23.6c26.9 13.2 46 26.9 68.1 48.9 22 22.1 35.7 41.2 48.9 68.1 12.3 25 19.4 47.7 23.7 75 3.1 20.1 3.1 55.9 0 76-2.5 16-7.7 36.5-12.8 50.4a385.4 385.4 0 0 1-20.8 43.6l-2.5 4-.1-92.3c0-90.8 0-92.2-2-94.2a6.2 6.2 0 0 0-9 0c-1.9 1.9-2 3.4-2 26.2l-.1 24.3-3.5-7.5a128 128 0 0 0-71.4-64.8 106.2 106.2 0 0 0-41.5-6.6c-21.8 0-39 3.9-56 12.8l-6.7 3.4c-.4.2.3-2.8 1.7-6.7 4.6-13.6 5.9-22.5 5.9-39.6 0-17.7-1.4-26.7-6.6-41.5A125 125 0 0 0 226 49.2a108.6 108.6 0 0 0-41.8-6.7h-16.4l4.9-2.1a274.6 274.6 0 0 1 83.8-20.8c9.9-1 44.5.4 57.3 2.3zM201.5 58.5a107.6 107.6 0 0 1 58.2 28.8 108.8 108.8 0 0 1 0 158.4 112.1 112.1 0 0 1-48.4 27 81 81 0 0 1-26.8 2.6c-15.1 0-18-.3-26.5-2.5-5.2-1.5-11.5-3.6-14-4.7-2.5-1.2-3.8-1.9-2.8-1.7a104.7 104.7 0 0 0 124.5-76.2 76.7 76.7 0 0 0 2.6-25.7c0-14.1-.3-17.2-2.6-25.7a105 105 0 0 0-95.2-78.6l-10-.6 7-1.2a114 114 0 0 1 34 .1zm-8.1 21.6a82.7 82.7 0 0 1 34.1 21.4 87.1 87.1 0 0 1 26.1 68 86.6 86.6 0 0 1-27 59 88.7 88.7 0 0 1-67.1 25.2c-15.8-1-18.1-2.2-5.5-3a89.2 89.2 0 0 0 82.6-68.7c1.4-5.5 1.9-11 1.9-20.5 0-14.3-1.6-22.5-6.7-34.9a92.5 92.5 0 0 0-47.1-47.3 60.7 60.7 0 0 1-6.7-3c-.9-1 6.4.9 15.4 3.8zm-16.3 12.3a68.4 68.4 0 0 1 24.8 16.7 70 70 0 0 1 20.8 39.2c3.8 20-1.5 41.7-14.2 58.6a79.4 79.4 0 0 1-40.5 26.8 98.5 98.5 0 0 1-35.5.3l-6-1.4 10-.7a74.7 74.7 0 0 0 70.2-55.9 96 96 0 0 0 0-37 77.8 77.8 0 0 0-36.8-47.1c-4.9-2.8-5.1-3-2.1-2.5 1.8.3 6 1.7 9.3 3zm-29.9 7.1a60.7 60.7 0 0 1 46.8 58 60.4 60.4 0 0 1-59.5 59.5 60 60 0 0 1-52.4-31.9 48.1 48.1 0 0 1-6-31.4 79.7 79.7 0 0 1 8.7-28.5 60.2 60.2 0 0 1 62.4-25.7zm-83.6 35.2c-.8 2.2-2.1 8.5-3 14-1.4 8.8-1.6 25.9-1.6 136.9 0 146.8 1.6 132.9-12.3 105.4a242.1 242.1 0 0 1-26.2-88.9c-5.3-49.9 4.2-100 27.4-144.6 7-13.6 15.9-28 16.7-27.3.2.3-.2 2.3-1 4.5zM380 212.4l7.5 1.2-10 .6a105.2 105.2 0 0 0-95.2 78.6 76.7 76.7 0 0 0-2.6 25.7c0 14.1.3 17.2 2.6 25.7a104.7 104.7 0 0 0 124.5 76.2c1-.2-.3.5-2.8 1.7-2.5 1.1-8.8 3.2-14 4.7a81.9 81.9 0 0 1-26.5 2.5 81 81 0 0 1-26.8-2.6c-30.4-8.1-56-28.4-70.1-55.7a108.7 108.7 0 0 1-7.1-84.3A110.1 110.1 0 0 1 380 212.4zm-295.6 28a139.4 139.4 0 0 0 44.5 37.6c7.8 3.9 21.1 8.4 31.1 10.6 11.9 2.6 37.1 2.6 49 0 10.5-2.3 23.6-6.8 31.5-11l6.7-3.4c.4-.2-.3 2.8-1.7 6.7a107.9 107.9 0 0 0-5.9 39.6c-.1 17.7 1.3 26.5 6.6 41.5 6.2 17.4 16 32.9 29.5 46.3a124.6 124.6 0 0 0 63.3 34.3c11.9 2.6 37.1 2.6 49 0 10-2.2 23.3-6.7 31.1-10.6 23.9-12.1 46-34.8 57.3-59l3.5-7.5.1 32.6v32.6l-7.9 9.4a285.6 285.6 0 0 1-61.1 53.3c-10 6.4-35.1 18.6-47.5 23.2a290 290 0 0 1-50 12.6 311.7 311.7 0 0 1-76 0 257.3 257.3 0 0 1-158.1-88.4l-7.4-8.9V220.5l4 6.9c2.3 3.8 6 9.7 8.4 13zm285.5-10a92.7 92.7 0 0 0-53.8 50.4 79.6 79.6 0 0 0-6.6 34.7c0 9.5.5 15 1.9 20.5a90.3 90.3 0 0 0 83.5 68.9l10.6.7-7.8 1.2a85.6 85.6 0 0 1-43.2-3.9 91.4 91.4 0 0 1-53.3-49.2 89.3 89.3 0 0 1 18.3-97.3 89 89 0 0 1 26-18.9c7.3-3.4 26.4-9 24.4-7.1zm8.2 15.6a77 77 0 0 0-36.8 47 96 96 0 0 0 0 37 75.8 75.8 0 0 0 70.2 55.9l10 .7-6 1.4a98.5 98.5 0 0 1-35.5-.3 76.1 76.1 0 0 1-48.6-40.2 63.6 63.6 0 0 1-6.8-32c0-13.6 1.5-20.9 6.8-32a76 76 0 0 1 42.9-38.5c8-2.9 9.9-2.4 3.8 1zm48.1 7.5a63.2 63.2 0 0 1 36.3 24.4 76.4 76.4 0 0 1 9.4 44.4 59.3 59.3 0 1 1-45.7-68.8z"/>
</svg>